<?xml version="1.0" encoding="UTF-8" standalone="no"?>
<!-- Created with Inkscape (http://www.inkscape.org/) -->

<svg
   xmlns:dc="http://purl.org/dc/elements/1.1/"
   xmlns:cc="http://creativecommons.org/ns#"
   xmlns:rdf="http://www.w3.org/1999/02/22-rdf-syntax-ns#"
   xmlns:svg="http://www.w3.org/2000/svg"
   xmlns="http://www.w3.org/2000/svg"
   xmlns:sodipodi="http://sodipodi.sourceforge.net/DTD/sodipodi-0.dtd"
   xmlns:inkscape="http://www.inkscape.org/namespaces/inkscape"
   width="35"
   height="35"
   id="svg2"
   version="1.1"
   inkscape:version="0.48.4 r9939"
   sodipodi:docname="hamburg2.svg">
  <defs
     id="defs4" />
  <sodipodi:namedview
     id="base"
     pagecolor="#ffffff"
     bordercolor="#666666"
     borderopacity="1.0"
     inkscape:pageopacity="0.0"
     inkscape:pageshadow="2"
     inkscape:zoom="5.6"
     inkscape:cx="53.112989"
     inkscape:cy="29.307549"
     inkscape:document-units="px"
     inkscape:current-layer="layer1"
     showgrid="false"
     showguides="false"
     inkscape:guide-bbox="true"
     inkscape:window-width="1555"
     inkscape:window-height="876"
     inkscape:window-x="45"
     inkscape:window-y="24"
     inkscape:window-maximized="1">
    <sodipodi:guide
       orientation="1,0"
       position="380,708.57143"
       id="guide3755" />
    <sodipodi:guide
       orientation="0,1"
       position="380,460"
       id="guide3776" />
    <sodipodi:guide
       orientation="0,1"
       position="474.28571,498.57143"
       id="guide3778" />
    <sodipodi:guide
       orientation="0,1"
       position="440,425.71429"
       id="guide3780" />
    <sodipodi:guide
       orientation="1,0"
       position="-258.57143,872.85714"
       id="guide3782" />
    <sodipodi:guide
       orientation="1,0"
       position="573.57143,460"
       id="guide3788" />
    <sodipodi:guide
       orientation="1,0"
       position="186.42857,607.85714"
       id="guide3790" />
    <sodipodi:guide
       orientation="1,0"
       position="-254.28571,892.85714"
       id="guide3804" />
  </sodipodi:namedview>
  <metadata
     id="metadata7">
    <rdf:RDF>
      <cc:Work
         rdf:about="">
        <dc:format>image/svg+xml</dc:format>
        <dc:type
           rdf:resource="http://purl.org/dc/dcmitype/StillImage" />
        <dc:title />
      </cc:Work>
    </rdf:RDF>
  </metadata>
  <g
     inkscape:label="Calque 1"
     inkscape:groupmode="layer"
     id="layer1"
     transform="translate(0,-1017.3622)">
    <path
       style="fill:#e31b23;fill-opacity:1;stroke:none"
       d="m 17.569901,1018.2595 c -9.1683363,0 -16.60115102,7.4329 -16.60115102,16.6013 0,9.1683 7.43281472,16.5997 16.60115102,16.5997 9.168335,0 16.599714,-7.4314 16.599714,-16.5997 0,-9.1684 -7.431379,-16.6013 -16.599714,-16.6013 z m -8.3177994,7.1395 16.6169394,0 c 0.787386,0 0.787386,3.5424 0,3.5424 l -16.6169394,0 c -0.7447367,0 -0.7447367,-3.5424 0,-3.5424 z m 0,7.6244 16.6169394,0 c 0.787386,0 0.787386,3.5425 0,3.5425 l -16.6169394,0 c -0.7447367,0 -0.7447367,-3.5425 0,-3.5425 z m 0,7.441 16.6169394,0 c 0.787386,0 0.787386,3.5424 0,3.5424 l -16.6169394,0 c -0.7447367,0 -0.7447367,-3.5424 0,-3.5424 z"
       id="path2985"
       inkscape:connector-curvature="0" />
  </g>
</svg>
