<?xml version="1.0" encoding="UTF-8" standalone="no"?>
<!-- Created with Inkscape (http://www.inkscape.org/) -->

<svg
   xmlns:dc="http://purl.org/dc/elements/1.1/"
   xmlns:cc="http://creativecommons.org/ns#"
   xmlns:rdf="http://www.w3.org/1999/02/22-rdf-syntax-ns#"
   xmlns:svg="http://www.w3.org/2000/svg"
   xmlns="http://www.w3.org/2000/svg"
   xmlns:sodipodi="http://sodipodi.sourceforge.net/DTD/sodipodi-0.dtd"
   xmlns:inkscape="http://www.inkscape.org/namespaces/inkscape"
   id="svg3034"
   version="1.1"
   inkscape:version="0.48.4 r9939"
   width="50"
   height="50"
   sodipodi:docname="pom1.svg">
  <metadata
     id="metadata3040">
    <rdf:RDF>
      <cc:Work
         rdf:about="">
        <dc:format>image/svg+xml</dc:format>
        <dc:type
           rdf:resource="http://purl.org/dc/dcmitype/StillImage" />
        <dc:title></dc:title>
      </cc:Work>
    </rdf:RDF>
  </metadata>
  <defs
     id="defs3038">
    <filter
       inkscape:collect="always"
       id="filter3828"
       x="-0.15866935"
       width="1.3173387"
       y="-0.21428979"
       height="1.4285796">
      <feGaussianBlur
         inkscape:collect="always"
         stdDeviation="0.31824238"
         id="feGaussianBlur3830" />
    </filter>
    <filter
       inkscape:collect="always"
       id="filter3885">
      <feGaussianBlur
         inkscape:collect="always"
         stdDeviation="0.46073813"
         id="feGaussianBlur3887" />
    </filter>
    <filter
       inkscape:collect="always"
       id="filter3903">
      <feGaussianBlur
         inkscape:collect="always"
         stdDeviation="0.11449019"
         id="feGaussianBlur3905" />
    </filter>
    <filter
       inkscape:collect="always"
       id="filter3919"
       x="-0.1224424"
       width="1.2448848"
       y="-0.093461776"
       height="1.1869236">
      <feGaussianBlur
         inkscape:collect="always"
         stdDeviation="0.17762056"
         id="feGaussianBlur3921" />
    </filter>
  </defs>
  <sodipodi:namedview
     pagecolor="#ffffff"
     bordercolor="#666666"
     borderopacity="1"
     objecttolerance="10"
     gridtolerance="10"
     guidetolerance="10"
     inkscape:pageopacity="0"
     inkscape:pageshadow="2"
     inkscape:window-width="1555"
     inkscape:window-height="876"
     id="namedview3036"
     showgrid="false"
     inkscape:zoom="6.55"
     inkscape:cx="67.132385"
     inkscape:cy="38.0856"
     inkscape:window-x="45"
     inkscape:window-y="24"
     inkscape:window-maximized="1"
     inkscape:current-layer="svg3034" />
  <g
     id="g3923"
     transform="matrix(2.5002416,0,0,2.4428358,-4.9786015,-46.328851)">
    <path
       sodipodi:nodetypes="csssc"
       inkscape:connector-curvature="0"
       id="path3044"
       d="m 12.666327,23.663077 c -6.1832104,-0.152671 -9.0812604,3.341846 -9.1194304,7.845663 -0.0247,2.909684 2.90076,7.290076 8.1679404,7.328244 5.19575,0.03765 8.86153,-3.074452 8.9313,-6.48855 0.12435,-6.084933 -4.62104,-8.609021 -7.97981,-8.685357 z"
       style="fill:#ff0000;fill-opacity:1;stroke:none" />
    <path
       inkscape:connector-curvature="0"
       id="path3818"
       d="m 12.773257,24.842072 c -2.75286,0.134944 -4.2642304,2.644903 -2.34803,3.40059 1.91621,0.755686 4.39918,-1.862228 3.88639,-2.590926 -0.51278,-0.728698 -1.16052,-0.91762 -1.53836,-0.809664 z"
       style="fill:#800000;fill-opacity:1;stroke:#f20000;stroke-width:1;stroke-linecap:butt;stroke-linejoin:miter;stroke-miterlimit:4;stroke-opacity:1;stroke-dasharray:none;filter:url(#filter3828)" />
    <path
       sodipodi:nodetypes="cccc"
       inkscape:connector-curvature="0"
       id="path3814"
       d="m 11.774667,26.434411 c 0.7287,-8.636418 7.58779,-7.261593 8.79836,-6.909135 -1.16052,0.647732 -1.24149,2.995758 -3.07673,4.857986 -1.07955,0.728697 -5.31679,2.455981 -5.72163,2.051149 z"
       style="fill:#00de00;fill-opacity:1;stroke:none" />
    <path
       sodipodi:nodetypes="cccc"
       inkscape:connector-curvature="0"
       id="path3816"
       d="m 11.855637,26.488389 c 0.45881,-1.106541 5.99152,-6.396348 8.47449,-6.936124 -1.7003,0.809664 -4.15628,2.590926 -5.0739,3.508546 -0.91762,0.917619 -3.04973,2.806835 -3.40059,3.427578 z"
       style="fill:#009400;fill-opacity:1;stroke:none" />
    <path
       sodipodi:nodetypes="csccc"
       inkscape:connector-curvature="0"
       id="path3851"
       d="m 8.2797266,24.676679 c -4.17939,2.21374 -5.33616,6.721769 -3.6021,9.942747 2.00858,3.730916 6.5028604,4.980918 10.9303404,3.187025 -5.19084,0.190839 -8.1297704,-3.206108 -8.7404504,-5.305344 -0.61069,-2.099237 0.15267,-5.19084 1.41221,-7.824428 z"
       style="fill:#db0000;fill-opacity:1;stroke:none;filter:url(#filter3885)" />
    <path
       inkscape:connector-curvature="0"
       id="path3889"
       d="m 15.869417,22.444426 c -0.70171,0.944608 -0.56676,2.240071 0.64773,2.213082 1.2145,-0.02699 -4.07531,1.943195 -4.45315,1.754273 -0.37784,-0.188922 3.45457,-3.697467 3.80542,-3.967355 z"
       style="fill:#00bd00;fill-opacity:1;stroke:none;filter:url(#filter3903)" />
    <path
       sodipodi:nodetypes="cccc"
       inkscape:connector-curvature="0"
       id="path3909"
       d="m 11.902067,26.276837 c 0.48579,-0.944608 3.18468,-3.454568 3.48155,-3.6165 -1.34944,0.269888 -1.78126,-0.215911 -1.99717,-0.944609 -0.70171,1.160519 -1.37643,3.15769 -1.48438,4.561109 z"
       style="fill:#00bd00;fill-opacity:1;stroke:none;filter:url(#filter3919)" />
  </g>
</svg>
